<?xml version="1.0" encoding="utf-8"?>
<!-- Generator: Adobe Illustrator 18.1.1, SVG Export Plug-In . SVG Version: 6.00 Build 0)  -->
<!DOCTYPE svg PUBLIC "-//W3C//DTD SVG 1.1//EN" "http://www.w3.org/Graphics/SVG/1.1/DTD/svg11.dtd">
<svg version="1.1" id="Layer_1" xmlns="http://www.w3.org/2000/svg" xmlns:xlink="http://www.w3.org/1999/xlink" x="0px" y="0px"
	 viewBox="0 0 420.1 118.2" enable-background="new 0 0 420.1 118.2" xml:space="preserve">
<g>
	<polygon fill="#808184" points="394.6,76.4 367.9,76.4 367.5,52 368.5,50.9 394.6,50.9 	"/>
	<polygon fill="#DBDCDD" points="419.5,76.4 394,76.4 394,49.9 418.4,49.9 419.5,50.9 	"/>
	<polygon fill="#DBDCDD" points="136.7,76.4 111.3,76.4 110.3,50.9 137.7,50.9 	"/>
	<polygon fill="#A6A8AB" points="394.6,25.5 367.9,25.5 367.9,0 394,0 395.1,1.1 	"/>
	<rect x="308.6" y="24.9" fill="#F1F1F2" width="25.5" height="26.7"/>
	<rect x="282.4" y="50.9" fill="#D0D2D3" width="26.9" height="25.5"/>
	<rect x="257.7" y="24.9" fill="#808184" width="25.5" height="26.7"/>
	<rect x="194.9" y="50.9" fill="#F1F1F2" width="26.6" height="25.5"/>
	<rect x="221" y="24.9" fill="#A6A8AB" width="25.5" height="26.7"/>
	<rect x="194.9" y="0" fill="#DBDCDD" width="26.6" height="25.5"/>
	<rect x="170" y="24.9" fill="#808184" width="25.5" height="26.7"/>
	<polygon fill="#F1F1F2" points="162.2,50.9 161.3,51.8 136.7,51.5 136.7,24.2 162.2,24.2 	"/>
	<polygon fill="#A6A8AB" points="111.3,51.5 87.3,52.5 85.8,50.9 85.8,24.2 111.3,24.2 	"/>
	<rect x="25.1" y="50.9" fill="#DBDCDD" width="26.2" height="25.5"/>
	<rect x="50.9" y="24.9" fill="#808184" width="25.5" height="26.7"/>
	<rect x="25.1" y="0" fill="#DBDCDD" width="26.2" height="25.5"/>
	<rect x="0" y="24.9" fill="#808184" width="25.5" height="26.7"/>
	<rect x="85.8" y="0" fill="#D0D2D3" width="25.5" height="25.5"/>
	<rect x="136.7" y="0" fill="#A6A8AB" width="25.5" height="25.5"/>
	<polygon fill="#D0D2D3" points="136.7,76.4 136.7,50.9 162.2,50.9 	"/>
	<polygon fill="#808184" points="111.3,76.4 85.8,50.9 111.3,50.9 	"/>
	<rect x="50.9" y="0" fill="#D0D2D3" width="25.5" height="25.5"/>
	<rect x="50.9" y="50.9" fill="#A6A8AB" width="25.5" height="25.5"/>
	<path fill="#D0D2D3" d="M25.5,25.5c0,0-12.9,0-25.5,0C0,9.7,11.3,0,25.5,0C25.5,28,25.5,25.5,25.5,25.5z"/>
	<path fill="#F1F1F2" d="M25.5,50.9c0,0,0,12.9,0,25.5C9.7,76.4,0,65.1,0,50.9C28,50.9,25.5,50.9,25.5,50.9z"/>
	<rect x="221" y="0" fill="#808184" width="25.5" height="25.5"/>
	<rect x="221" y="50.9" fill="#D0D2D3" width="25.5" height="25.5"/>
	<path fill="#A6A8AB" d="M195.5,25.5c0,0-12.9,0-25.5,0C170,9.7,181.3,0,195.5,0C195.5,28,195.5,25.5,195.5,25.5z"/>
	<path fill="#DBDCDD" d="M195.5,50.9c0,0,0,12.9,0,25.5c-15.7,0-25.5-11.3-25.5-25.5C198,50.9,195.5,50.9,195.5,50.9z"/>
	<rect x="257.7" y="0" fill="#A6A8AB" width="25.5" height="25.5"/>
	<rect x="308.6" y="0" fill="#808184" width="25.5" height="25.5"/>
	<path fill="#DBDCDD" d="M283.1,50.9c0,0,0,12.9,0,25.5c-15.7,0-25.5-11.3-25.5-25.5C285.7,50.9,283.1,50.9,283.1,50.9z"/>
	<path fill="#DBDCDD" d="M308.6,50.9c0,0,12.9,0,25.5,0c0,15.7-11.3,25.5-25.5,25.5C308.6,48.4,308.6,50.9,308.6,50.9z"/>
	<polygon fill="#808184" points="368.5,26.6 344.1,26.5 343.1,25.5 343.1,0 368.5,0 	"/>
	<polygon fill="#D0D2D3" points="419.5,25.5 394,25.5 394,0 	"/>
	<polygon fill="#DBDCDD" points="368.5,50.9 343.1,25.5 368.5,25.5 	"/>
	<polygon fill="#F1F1F2" points="419.5,50.9 394,50.9 394,25.5 	"/>
	<polygon fill="#D0D2D3" points="368.5,76.4 343.1,76.4 368.5,50.9 	"/>
	<g>
		<path fill="#FFFFFF" d="M7.6,102.6v15.6H2.2V91.7h5.7l5.8,12l5.7-12h5.7v26.5h-5.5v-15.8l-4,8.1h-3.9L7.6,102.6z"/>
		<path fill="#FFFFFF" d="M28.2,118.2v-5.9c0-0.9,0.4-2.1,0.5-2.4l6.2-18.1H41l6.1,18.1c0.1,0.3,0.5,1.5,0.5,2.4v5.9H42v-5.4h-8.4
			v5.4H28.2z M34.8,107.9h6l-3-9.8L34.8,107.9z"/>
		<path fill="#FFFFFF" d="M60,108.2h-3.7v9.9h-5.8V91.7h13.1c3.6,0,5.6,2,5.6,5.6v5.4c0,2.8-1.1,4.6-3.3,5.3l3.4,10.2H63L60,108.2z
			 M56.2,96.6v6.6h6.1c0.6,0,0.9-0.3,0.9-0.9v-4.7c0-0.6-0.3-0.9-0.9-0.9H56.2z"/>
		<path fill="#FFFFFF" d="M78.7,107v11.2h-5.8V91.7h5.8v10.4h2.6l4.5-4.4c0.5-0.5,0.6-0.9,0.6-1.7v-4.3h5.5V97
			c0,1.3-0.5,2.3-1.1,2.8l-4.9,4.8l5.2,5.9c0.6,0.6,0.9,1.2,0.9,2.6v5.1h-5.8v-4c0-0.9-0.2-1.2-0.6-1.7l-4.7-5.4H78.7z"/>
		<path fill="#FFFFFF" d="M95.9,91.7h16.8v5h-11v5.4h9.9v4.9h-9.9v6.2h11.2v5h-17V91.7z"/>
		<path fill="#FFFFFF" d="M127.7,96.8v21.4h-5.8V96.8h-6.3v-5h18.3v5H127.7z"/>
		<path fill="#FFFFFF" d="M137.7,91.7h5.8v26.5h-5.8V91.7z"/>
		<path fill="#FFFFFF" d="M153.4,103v15.2h-5.5V91.7h5.3l8.3,15.2V91.7h5.5v26.5h-5.3L153.4,103z"/>
		<path fill="#FFFFFF" d="M184.2,118.2h-7.4c-3.6,0-5.6-2-5.6-5.6V97c0-3.6,2-5.6,5.6-5.6h7.4c3.6,0,5.6,2,5.6,5.6v2.9H184v-2.6
			c0-0.6-0.3-0.9-0.9-0.9H178c-0.6,0-0.9,0.3-0.9,0.9v14.9c0,0.6,0.3,0.9,0.9,0.9h5.1c0.6,0,0.9-0.3,0.9-0.9v-3.4h-3.5v-4.6h9.2v8.3
			C189.8,116.2,187.8,118.2,184.2,118.2z"/>
		<path fill="#FFFFFF" d="M203.8,91.7h5.8v26.5h-5.8V91.7z"/>
		<path fill="#FFFFFF" d="M220.2,103v15.2h-5.5V91.7h5.3l8.3,15.2V91.7h5.5v26.5h-5.3L220.2,103z"/>
		<path fill="#FFFFFF" d="M244.3,103v15.2h-5.5V91.7h5.3l8.3,15.2V91.7h5.5v26.5h-5.3L244.3,103z"/>
		<path fill="#FFFFFF" d="M267.7,118.2c-3.6,0-5.6-2-5.6-5.6V97c0-3.6,2-5.6,5.6-5.6h7.9c3.6,0,5.6,2,5.6,5.6v15.6
			c0,3.6-2,5.6-5.6,5.6H267.7z M267.9,112.3c0,0.6,0.3,0.9,0.9,0.9h5.5c0.6,0,0.9-0.3,0.9-0.9V97.3c0-0.6-0.3-0.9-0.9-0.9h-5.5
			c-0.6,0-0.9,0.3-0.9,0.9V112.3z"/>
		<path fill="#FFFFFF" d="M284.5,100.1c-0.2-0.5-0.5-1.3-0.5-2.3v-6.1h5.8v5.4c0,0.9,0,1.2,0.2,1.7l3.6,12.2l3.6-12.2
			c0.2-0.5,0.2-0.8,0.2-1.7v-5.4h5.7v6.1c0,0.9-0.3,1.7-0.5,2.3l-6,18.1h-6.1L284.5,100.1z"/>
		<path fill="#FFFFFF" d="M303.6,118.2v-5.9c0-0.9,0.4-2.1,0.5-2.4l6.2-18.1h6.1l6.1,18.1c0.1,0.3,0.5,1.5,0.5,2.4v5.9h-5.6v-5.4
			h-8.4v5.4H303.6z M310.3,107.9h6l-3-9.8L310.3,107.9z"/>
		<path fill="#FFFFFF" d="M335,96.8v21.4h-5.8V96.8h-6.3v-5h18.3v5H335z"/>
		<path fill="#FFFFFF" d="M344.8,91.7h5.8v26.5h-5.8V91.7z"/>
		<path fill="#FFFFFF" d="M360.4,118.2c-3.6,0-5.6-2-5.6-5.6V97c0-3.6,2-5.6,5.6-5.6h7.9c3.6,0,5.6,2,5.6,5.6v15.6
			c0,3.6-2,5.6-5.6,5.6H360.4z M360.6,112.3c0,0.6,0.3,0.9,0.9,0.9h5.5c0.6,0,0.9-0.3,0.9-0.9V97.3c0-0.6-0.3-0.9-0.9-0.9h-5.5
			c-0.6,0-0.9,0.3-0.9,0.9V112.3z"/>
		<path fill="#FFFFFF" d="M383.6,103v15.2h-5.5V91.7h5.3l8.3,15.2V91.7h5.5v26.5h-5.3L383.6,103z"/>
		<path fill="#FFFFFF" d="M401.4,97c0-3.6,2-5.6,5.6-5.6h7.4c3.5,0,5.4,2,5.4,5.6v2.6h-5.7v-2.4c0-0.6-0.3-0.9-0.9-0.9h-5
			c-0.6,0-0.9,0.3-0.9,0.9v2.7c0,0.7,0.2,0.9,0.8,1.1l8.4,2.2c2.5,0.6,3.7,2.2,3.7,4.5v4.9c0,3.6-2,5.6-5.6,5.6h-7.9
			c-3.5,0-5.4-2-5.4-5.6v-2.4h5.7v2.2c0,0.6,0.3,0.9,0.9,0.9h5.5c0.6,0,0.9-0.3,0.9-0.9v-3.3c0-0.6-0.3-0.9-0.9-1.1l-8.7-2.2
			c-1.8-0.5-3.4-1.9-3.4-4.8V97z"/>
	</g>
</g>
</svg>
